<?xml version="1.0" encoding="UTF-8" standalone="no"?>
<!DOCTYPE svg PUBLIC "-//W3C//DTD SVG 1.1//EN"
 "http://www.w3.org/Graphics/SVG/1.1/DTD/svg11.dtd">
<!-- Generated by graphviz version 2.40.1 (0)
 -->
<!-- Pages: 1 -->
<svg width="944pt" height="1318pt"
 viewBox="0.00 0.00 944.47 1318.33" xmlns="http://www.w3.org/2000/svg" xmlns:xlink="http://www.w3.org/1999/xlink">
<g id="graph0" class="graph" transform="scale(1 1) rotate(0) translate(4 1314.33)">
<polygon fill="#ffffff" stroke="transparent" points="-4,4 -4,-1314.33 940.4725,-1314.33 940.4725,4 -4,4"/>
<!-- 139917256247672 -->
<g id="node1" class="node">
<title>139917256247672</title>
<ellipse fill="#ffffff" stroke="#000000" cx="355.4725" cy="-27" rx="82" ry="27"/>
<text text-anchor="middle" x="355.4725" y="-30.8" font-family="Times,serif" font-size="14.00" fill="#000000">gather </text>
<text text-anchor="middle" x="355.4725" y="-15.8" font-family="Times,serif" font-size="14.00" fill="#000000"> (—, —, —, —)</text>
</g>
<!-- 139917256460272 -->
<g id="node2" class="node">
<title>139917256460272</title>
<ellipse fill="#ffffff" stroke="#000000" cx="113.4725" cy="-924.4" rx="54.5" ry="27"/>
<text text-anchor="middle" x="113.4725" y="-928.2" font-family="Times,serif" font-size="14.00" fill="#000000">getitem </text>
<text text-anchor="middle" x="113.4725" y="-913.2" font-family="Times,serif" font-size="14.00" fill="#000000"> (—, 0)</text>
</g>
<!-- 139917256460272&#45;&gt;139917256247672 -->
<g id="edge1" class="edge">
<title>139917256460272&#45;&gt;139917256247672</title>
<path fill="none" stroke="#000000" d="M74.9525,-905.23C57.7265,-894.69 38.7905,-879.97 27.4695,-861.53 0,-816.78 8.47,-797.43 8.47,-744.92 8.47,-744.92 8.47,-744.92 8.47,-206.48 8.47,-90.628 162.9525,-49.472 265.7725,-34.91"/>
<polygon fill="#000000" stroke="#000000" points="266.4234,-38.3539 275.8625,-33.542 265.4829,-31.4173 266.4234,-38.3539"/>
</g>
<!-- 139917256130912 -->
<g id="node3" class="node">
<title>139917256130912</title>
<ellipse fill="#cccccc" stroke="#000000" cx="113.4725" cy="-834.66" rx="77" ry="27"/>
<text text-anchor="middle" x="113.4725" y="-838.46" font-family="Times,serif" font-size="14.00" fill="#000000">coarse </text>
<text text-anchor="middle" x="113.4725" y="-823.46" font-family="Times,serif" font-size="14.00" fill="#000000"> (—, 0.0, 5.0)</text>
</g>
<!-- 139917256460272&#45;&gt;139917256130912 -->
<g id="edge2" class="edge">
<title>139917256460272&#45;&gt;139917256130912</title>
<path fill="none" stroke="#000000" d="M113.4725,-897.48C113.4725,-889.4 113.4725,-880.4 113.4725,-871.79"/>
<polygon fill="#000000" stroke="#000000" points="116.9726,-871.57 113.4725,-861.57 109.9726,-871.57 116.9726,-871.57"/>
</g>
<!-- 139917256245992 -->
<g id="node4" class="node">
<title>139917256245992</title>
<ellipse fill="#ffffff" stroke="#000000" cx="246.4725" cy="-744.92" rx="49" ry="27"/>
<text text-anchor="middle" x="246.4725" y="-748.72" font-family="Times,serif" font-size="14.00" fill="#000000">add </text>
<text text-anchor="middle" x="246.4725" y="-733.72" font-family="Times,serif" font-size="14.00" fill="#000000"> (—, —)</text>
</g>
<!-- 139917256130912&#45;&gt;139917256245992 -->
<g id="edge3" class="edge">
<title>139917256130912&#45;&gt;139917256245992</title>
<path fill="none" stroke="#000000" d="M149.1125,-810.61C166.8325,-798.65 188.3125,-784.16 206.5825,-771.84"/>
<polygon fill="#000000" stroke="#000000" points="208.9328,-774.4762 215.2625,-765.98 205.016,-768.6746 208.9328,-774.4762"/>
</g>
<!-- 139917256246384 -->
<g id="node5" class="node">
<title>139917256246384</title>
<ellipse fill="#ffffff" stroke="#000000" cx="320.4725" cy="-655.18" rx="49" ry="27"/>
<text text-anchor="middle" x="320.4725" y="-658.98" font-family="Times,serif" font-size="14.00" fill="#000000">sub </text>
<text text-anchor="middle" x="320.4725" y="-643.98" font-family="Times,serif" font-size="14.00" fill="#000000"> (—, —)</text>
</g>
<!-- 139917256245992&#45;&gt;139917256246384 -->
<g id="edge4" class="edge">
<title>139917256245992&#45;&gt;139917256246384</title>
<path fill="none" stroke="#000000" d="M266.6925,-720.4C275.0125,-710.31 284.7725,-698.48 293.6725,-687.68"/>
<polygon fill="#000000" stroke="#000000" points="296.6145,-689.6134 300.2725,-679.67 291.2122,-685.162 296.6145,-689.6134"/>
</g>
<!-- 139917256246384&#45;&gt;139917256247672 -->
<g id="edge29" class="edge">
<title>139917256246384&#45;&gt;139917256247672</title>
<path fill="none" stroke="#000000" d="M311.6625,-628.45C301.0025,-593.68 284.4725,-530.84 284.4725,-475.7 284.4725,-475.7 284.4725,-475.7 284.4725,-206.48 284.4725,-153.42 311.6325,-97.329 332.3625,-62.26"/>
<polygon fill="#000000" stroke="#000000" points="335.5532,-63.7473 337.7325,-53.379 329.5631,-60.1253 335.5532,-63.7473"/>
</g>
<!-- 139917256245880 -->
<g id="node26" class="node">
<title>139917256245880</title>
<ellipse fill="#cccccc" stroke="#000000" cx="395.4725" cy="-565.44" rx="83.5" ry="27"/>
<text text-anchor="middle" x="395.4725" y="-569.24" font-family="Times,serif" font-size="14.00" fill="#000000">coarse </text>
<text text-anchor="middle" x="395.4725" y="-554.24" font-family="Times,serif" font-size="14.00" fill="#000000"> (—, 5.0, 10.0)</text>
</g>
<!-- 139917256246384&#45;&gt;139917256245880 -->
<g id="edge30" class="edge">
<title>139917256246384&#45;&gt;139917256245880</title>
<path fill="none" stroke="#000000" d="M340.9625,-630.66C349.0525,-620.98 358.4825,-609.7 367.1925,-599.27"/>
<polygon fill="#000000" stroke="#000000" points="369.9606,-601.4158 373.6925,-591.5 364.5915,-596.9243 369.9606,-601.4158"/>
</g>
<!-- 139917256134104 -->
<g id="node6" class="node">
<title>139917256134104</title>
<ellipse fill="#ffffff" stroke="#000000" cx="506.4725" cy="-1014.13" rx="117.5" ry="27"/>
<text text-anchor="middle" x="506.4725" y="-1017.93" font-family="Times,serif" font-size="14.00" fill="#000000">gather </text>
<text text-anchor="middle" x="506.4725" y="-1002.93" font-family="Times,serif" font-size="14.00" fill="#000000"> ([1.0, 0.0], —, —, —)</text>
</g>
<!-- 139917256134104&#45;&gt;139917256460272 -->
<g id="edge5" class="edge">
<title>139917256134104&#45;&gt;139917256460272</title>
<path fill="none" stroke="#000000" d="M409.9125,-998.72C346.6725,-987.7 262.5125,-971.31 189.4725,-951.27 181.9725,-949.21 174.1525,-946.78 166.5025,-944.24"/>
<polygon fill="#000000" stroke="#000000" points="167.527,-940.8915 156.9325,-940.98 165.2698,-947.5176 167.527,-940.8915"/>
</g>
<!-- 139917256134608 -->
<g id="node7" class="node">
<title>139917256134608</title>
<ellipse fill="#ffffff" stroke="#000000" cx="252.4725" cy="-924.4" rx="54.5" ry="27"/>
<text text-anchor="middle" x="252.4725" y="-928.2" font-family="Times,serif" font-size="14.00" fill="#000000">getitem </text>
<text text-anchor="middle" x="252.4725" y="-913.2" font-family="Times,serif" font-size="14.00" fill="#000000"> (—, 0)</text>
</g>
<!-- 139917256134104&#45;&gt;139917256134608 -->
<g id="edge6" class="edge">
<title>139917256134104&#45;&gt;139917256134608</title>
<path fill="none" stroke="#000000" d="M436.5325,-992.44C400.4425,-980.88 355.8425,-966.02 316.4725,-951.27 312.0525,-949.61 307.4825,-947.83 302.9125,-946.01"/>
<polygon fill="#000000" stroke="#000000" points="304.1743,-942.7449 293.5925,-942.22 301.5374,-949.2292 304.1743,-942.7449"/>
</g>
<!-- 139917256134496 -->
<g id="node8" class="node">
<title>139917256134496</title>
<ellipse fill="#ffffff" stroke="#000000" cx="379.4725" cy="-924.4" rx="54.5" ry="27"/>
<text text-anchor="middle" x="379.4725" y="-928.2" font-family="Times,serif" font-size="14.00" fill="#000000">getitem </text>
<text text-anchor="middle" x="379.4725" y="-913.2" font-family="Times,serif" font-size="14.00" fill="#000000"> (—, 0)</text>
</g>
<!-- 139917256134104&#45;&gt;139917256134496 -->
<g id="edge7" class="edge">
<title>139917256134104&#45;&gt;139917256134496</title>
<path fill="none" stroke="#000000" d="M470.0725,-988.43C454.1025,-977.13 435.3025,-963.85 418.9825,-952.32"/>
<polygon fill="#000000" stroke="#000000" points="420.8894,-949.3818 410.7025,-946.47 416.8501,-955.0989 420.8894,-949.3818"/>
</g>
<!-- 139917256245600 -->
<g id="node9" class="node">
<title>139917256245600</title>
<ellipse fill="#ffffff" stroke="#000000" cx="506.4725" cy="-924.4" rx="54.5" ry="27"/>
<text text-anchor="middle" x="506.4725" y="-928.2" font-family="Times,serif" font-size="14.00" fill="#000000">getitem </text>
<text text-anchor="middle" x="506.4725" y="-913.2" font-family="Times,serif" font-size="14.00" fill="#000000"> (—, 1)</text>
</g>
<!-- 139917256134104&#45;&gt;139917256245600 -->
<g id="edge8" class="edge">
<title>139917256134104&#45;&gt;139917256245600</title>
<path fill="none" stroke="#000000" d="M506.4725,-987.22C506.4725,-979.14 506.4725,-970.14 506.4725,-961.53"/>
<polygon fill="#000000" stroke="#000000" points="509.9726,-961.31 506.4725,-951.31 502.9726,-961.31 509.9726,-961.31"/>
</g>
<!-- 139917256246496 -->
<g id="node10" class="node">
<title>139917256246496</title>
<ellipse fill="#ffffff" stroke="#000000" cx="633.4725" cy="-924.4" rx="54.5" ry="27"/>
<text text-anchor="middle" x="633.4725" y="-928.2" font-family="Times,serif" font-size="14.00" fill="#000000">getitem </text>
<text text-anchor="middle" x="633.4725" y="-913.2" font-family="Times,serif" font-size="14.00" fill="#000000"> (—, 1)</text>
</g>
<!-- 139917256134104&#45;&gt;139917256246496 -->
<g id="edge9" class="edge">
<title>139917256134104&#45;&gt;139917256246496</title>
<path fill="none" stroke="#000000" d="M542.8625,-988.43C558.8425,-977.13 577.6425,-963.85 593.9625,-952.32"/>
<polygon fill="#000000" stroke="#000000" points="596.0949,-955.0989 602.2425,-946.47 592.0556,-949.3818 596.0949,-955.0989"/>
</g>
<!-- 139917256245936 -->
<g id="node11" class="node">
<title>139917256245936</title>
<ellipse fill="#ffffff" stroke="#000000" cx="760.4725" cy="-924.4" rx="54.5" ry="27"/>
<text text-anchor="middle" x="760.4725" y="-928.2" font-family="Times,serif" font-size="14.00" fill="#000000">getitem </text>
<text text-anchor="middle" x="760.4725" y="-913.2" font-family="Times,serif" font-size="14.00" fill="#000000"> (—, 2)</text>
</g>
<!-- 139917256134104&#45;&gt;139917256245936 -->
<g id="edge10" class="edge">
<title>139917256134104&#45;&gt;139917256245936</title>
<path fill="none" stroke="#000000" d="M576.4125,-992.44C612.5025,-980.88 657.1025,-966.02 696.4725,-951.27 700.8925,-949.61 705.4625,-947.83 710.0225,-946.01"/>
<polygon fill="#000000" stroke="#000000" points="711.3976,-949.2292 719.3425,-942.22 708.7607,-942.7449 711.3976,-949.2292"/>
</g>
<!-- 139917256247392 -->
<g id="node12" class="node">
<title>139917256247392</title>
<ellipse fill="#ffffff" stroke="#000000" cx="844.4725" cy="-834.66" rx="54.5" ry="27"/>
<text text-anchor="middle" x="844.4725" y="-838.46" font-family="Times,serif" font-size="14.00" fill="#000000">getitem </text>
<text text-anchor="middle" x="844.4725" y="-823.46" font-family="Times,serif" font-size="14.00" fill="#000000"> (—, 2)</text>
</g>
<!-- 139917256134104&#45;&gt;139917256247392 -->
<g id="edge11" class="edge">
<title>139917256134104&#45;&gt;139917256247392</title>
<path fill="none" stroke="#000000" d="M617.5025,-1005.33C697.0525,-996.6 794.9625,-980.29 823.4725,-951.27 843.7425,-930.64 848.0825,-897.49 847.8725,-871.79"/>
<polygon fill="#000000" stroke="#000000" points="851.3663,-871.5346 847.5525,-861.65 844.3698,-871.7555 851.3663,-871.5346"/>
</g>
<!-- 139917256245488 -->
<g id="node13" class="node">
<title>139917256245488</title>
<ellipse fill="#88ff88" stroke="#000000" cx="285.4725" cy="-834.66" rx="77" ry="27"/>
<text text-anchor="middle" x="285.4725" y="-838.46" font-family="Times,serif" font-size="14.00" fill="#000000">fine </text>
<text text-anchor="middle" x="285.4725" y="-823.46" font-family="Times,serif" font-size="14.00" fill="#000000"> (—, 0.0, 5.0)</text>
</g>
<!-- 139917256134608&#45;&gt;139917256245488 -->
<g id="edge12" class="edge">
<title>139917256134608&#45;&gt;139917256245488</title>
<path fill="none" stroke="#000000" d="M262.1925,-897.96C265.2925,-889.53 268.7825,-880.05 272.0925,-871.05"/>
<polygon fill="#000000" stroke="#000000" points="275.4268,-872.1235 275.5925,-861.53 268.8568,-869.708 275.4268,-872.1235"/>
</g>
<!-- 139917256245320 -->
<g id="node14" class="node">
<title>139917256245320</title>
<ellipse fill="#cccccc" stroke="#000000" cx="390.4725" cy="-744.92" rx="77" ry="27"/>
<text text-anchor="middle" x="390.4725" y="-748.72" font-family="Times,serif" font-size="14.00" fill="#000000">coarse </text>
<text text-anchor="middle" x="390.4725" y="-733.72" font-family="Times,serif" font-size="14.00" fill="#000000"> (—, 0.0, 5.0)</text>
</g>
<!-- 139917256134496&#45;&gt;139917256245320 -->
<g id="edge13" class="edge">
<title>139917256134496&#45;&gt;139917256245320</title>
<path fill="none" stroke="#000000" d="M381.1125,-897.53C382.9925,-866.87 386.0825,-816.52 388.1925,-782.11"/>
<polygon fill="#000000" stroke="#000000" points="391.6956,-782.165 388.8125,-771.97 384.7086,-781.7377 391.6956,-782.165"/>
</g>
<!-- 139917256245712 -->
<g id="node15" class="node">
<title>139917256245712</title>
<ellipse fill="#88ff88" stroke="#000000" cx="506.4725" cy="-655.18" rx="83.5" ry="27"/>
<text text-anchor="middle" x="506.4725" y="-658.98" font-family="Times,serif" font-size="14.00" fill="#000000">fine </text>
<text text-anchor="middle" x="506.4725" y="-643.98" font-family="Times,serif" font-size="14.00" fill="#000000"> (—, 5.0, 10.0)</text>
</g>
<!-- 139917256245600&#45;&gt;139917256245712 -->
<g id="edge14" class="edge">
<title>139917256245600&#45;&gt;139917256245712</title>
<path fill="none" stroke="#000000" d="M506.4725,-897.35C506.4725,-848.88 506.4725,-747.13 506.4725,-692.22"/>
<polygon fill="#000000" stroke="#000000" points="509.9726,-692.21 506.4725,-682.21 502.9726,-692.21 509.9726,-692.21"/>
</g>
<!-- 139917256246328 -->
<g id="node16" class="node">
<title>139917256246328</title>
<ellipse fill="#cccccc" stroke="#000000" cx="617.4725" cy="-565.44" rx="83.5" ry="27"/>
<text text-anchor="middle" x="617.4725" y="-569.24" font-family="Times,serif" font-size="14.00" fill="#000000">coarse </text>
<text text-anchor="middle" x="617.4725" y="-554.24" font-family="Times,serif" font-size="14.00" fill="#000000"> (—, 5.0, 10.0)</text>
</g>
<!-- 139917256246496&#45;&gt;139917256246328 -->
<g id="edge15" class="edge">
<title>139917256246496&#45;&gt;139917256246328</title>
<path fill="none" stroke="#000000" d="M632.2625,-897.42C629.4425,-834.02 622.3725,-675.42 619.1325,-602.8"/>
<polygon fill="#000000" stroke="#000000" points="622.6255,-602.5637 618.6825,-592.73 615.6325,-602.8763 622.6255,-602.5637"/>
</g>
<!-- 139917256246664 -->
<g id="node17" class="node">
<title>139917256246664</title>
<ellipse fill="#88ff88" stroke="#000000" cx="721.4725" cy="-475.7" rx="90" ry="27"/>
<text text-anchor="middle" x="721.4725" y="-479.5" font-family="Times,serif" font-size="14.00" fill="#000000">fine </text>
<text text-anchor="middle" x="721.4725" y="-464.5" font-family="Times,serif" font-size="14.00" fill="#000000"> (—, 10.0, 15.0)</text>
</g>
<!-- 139917256245936&#45;&gt;139917256246664 -->
<g id="edge16" class="edge">
<title>139917256245936&#45;&gt;139917256246664</title>
<path fill="none" stroke="#000000" d="M752.6425,-897.6C743.1725,-862.75 728.4725,-799.84 728.4725,-744.92 728.4725,-744.92 728.4725,-744.92 728.4725,-655.18 728.4725,-605.94 725.8025,-549.15 723.7625,-512.87"/>
<polygon fill="#000000" stroke="#000000" points="727.249,-512.5333 723.1825,-502.75 720.2605,-512.9339 727.249,-512.5333"/>
</g>
<!-- 139917256247224 -->
<g id="node18" class="node">
<title>139917256247224</title>
<ellipse fill="#cccccc" stroke="#000000" cx="846.4725" cy="-744.92" rx="90" ry="27"/>
<text text-anchor="middle" x="846.4725" y="-748.72" font-family="Times,serif" font-size="14.00" fill="#000000">coarse </text>
<text text-anchor="middle" x="846.4725" y="-733.72" font-family="Times,serif" font-size="14.00" fill="#000000"> (—, 10.0, 15.0)</text>
</g>
<!-- 139917256247392&#45;&gt;139917256247224 -->
<g id="edge17" class="edge">
<title>139917256247392&#45;&gt;139917256247224</title>
<path fill="none" stroke="#000000" d="M845.0725,-807.74C845.2525,-799.66 845.4525,-790.66 845.6425,-782.05"/>
<polygon fill="#000000" stroke="#000000" points="849.1465,-781.9062 845.8725,-771.83 842.1483,-781.7487 849.1465,-781.9062"/>
</g>
<!-- 139917256245488&#45;&gt;139917256245992 -->
<g id="edge18" class="edge">
<title>139917256245488&#45;&gt;139917256245992</title>
<path fill="none" stroke="#000000" d="M273.7725,-807.74C270.0425,-799.15 265.8525,-789.52 261.9025,-780.43"/>
<polygon fill="#000000" stroke="#000000" points="265.0905,-778.9843 257.8925,-771.21 258.6713,-781.7762 265.0905,-778.9843"/>
</g>
<!-- 139917256245320&#45;&gt;139917256246384 -->
<g id="edge19" class="edge">
<title>139917256245320&#45;&gt;139917256246384</title>
<path fill="none" stroke="#000000" d="M370.2225,-718.96C362.7025,-709.32 354.0725,-698.26 346.1325,-688.08"/>
<polygon fill="#000000" stroke="#000000" points="348.8602,-685.8862 339.9525,-680.15 343.3388,-690.1891 348.8602,-685.8862"/>
</g>
<!-- 139917256246944 -->
<g id="node19" class="node">
<title>139917256246944</title>
<ellipse fill="#ffffff" stroke="#000000" cx="506.4725" cy="-475.7" rx="49" ry="27"/>
<text text-anchor="middle" x="506.4725" y="-479.5" font-family="Times,serif" font-size="14.00" fill="#000000">add </text>
<text text-anchor="middle" x="506.4725" y="-464.5" font-family="Times,serif" font-size="14.00" fill="#000000"> (—, —)</text>
</g>
<!-- 139917256245712&#45;&gt;139917256246944 -->
<g id="edge20" class="edge">
<title>139917256245712&#45;&gt;139917256246944</title>
<path fill="none" stroke="#000000" d="M506.4725,-627.92C506.4725,-597.17 506.4725,-546.99 506.4725,-512.72"/>
<polygon fill="#000000" stroke="#000000" points="509.9726,-512.63 506.4725,-502.63 502.9726,-512.63 509.9726,-512.63"/>
</g>
<!-- 139917256247280 -->
<g id="node20" class="node">
<title>139917256247280</title>
<ellipse fill="#ffffff" stroke="#000000" cx="537.4725" cy="-385.96" rx="49" ry="27"/>
<text text-anchor="middle" x="537.4725" y="-389.76" font-family="Times,serif" font-size="14.00" fill="#000000">sub </text>
<text text-anchor="middle" x="537.4725" y="-374.76" font-family="Times,serif" font-size="14.00" fill="#000000"> (—, —)</text>
</g>
<!-- 139917256246328&#45;&gt;139917256247280 -->
<g id="edge21" class="edge">
<title>139917256246328&#45;&gt;139917256247280</title>
<path fill="none" stroke="#000000" d="M605.4925,-538.57C591.5925,-507.37 568.6025,-455.81 553.2525,-421.37"/>
<polygon fill="#000000" stroke="#000000" points="556.4077,-419.8515 549.1425,-412.14 550.013,-422.699 556.4077,-419.8515"/>
</g>
<!-- 139917256247840 -->
<g id="node21" class="node">
<title>139917256247840</title>
<ellipse fill="#ffffff" stroke="#000000" cx="615.4725" cy="-206.48" rx="49" ry="27"/>
<text text-anchor="middle" x="615.4725" y="-210.28" font-family="Times,serif" font-size="14.00" fill="#000000">add </text>
<text text-anchor="middle" x="615.4725" y="-195.28" font-family="Times,serif" font-size="14.00" fill="#000000"> (—, —)</text>
</g>
<!-- 139917256246664&#45;&gt;139917256247840 -->
<g id="edge22" class="edge">
<title>139917256246664&#45;&gt;139917256247840</title>
<path fill="none" stroke="#000000" d="M712.7925,-448.96C699.6825,-409.26 673.4725,-332.63 646.4725,-269.35 642.5725,-260.21 638.0025,-250.51 633.5925,-241.53"/>
<polygon fill="#000000" stroke="#000000" points="636.6821,-239.8825 629.0925,-232.49 630.4156,-243.0019 636.6821,-239.8825"/>
</g>
<!-- 139917256248176 -->
<g id="node22" class="node">
<title>139917256248176</title>
<ellipse fill="#ffffff" stroke="#000000" cx="615.4725" cy="-116.74" rx="49" ry="27"/>
<text text-anchor="middle" x="615.4725" y="-120.54" font-family="Times,serif" font-size="14.00" fill="#000000">sub </text>
<text text-anchor="middle" x="615.4725" y="-105.54" font-family="Times,serif" font-size="14.00" fill="#000000"> (—, —)</text>
</g>
<!-- 139917256247224&#45;&gt;139917256248176 -->
<g id="edge23" class="edge">
<title>139917256247224&#45;&gt;139917256248176</title>
<path fill="none" stroke="#000000" d="M845.4925,-717.86C844.3025,-682.73 842.4725,-619.52 842.4725,-565.44 842.4725,-565.44 842.4725,-565.44 842.4725,-296.22 842.4725,-207.87 735.3625,-156.21 668.2925,-132.52"/>
<polygon fill="#000000" stroke="#000000" points="669.2971,-129.1645 658.7025,-129.23 667.0256,-135.7857 669.2971,-129.1645"/>
</g>
<!-- 139917256246944&#45;&gt;139917256247280 -->
<g id="edge32" class="edge">
<title>139917256246944&#45;&gt;139917256247280</title>
<path fill="none" stroke="#000000" d="M515.6025,-449.26C518.5425,-440.76 521.8525,-431.18 524.9825,-422.1"/>
<polygon fill="#000000" stroke="#000000" points="528.3349,-423.1148 528.2925,-412.52 521.7186,-420.8287 528.3349,-423.1148"/>
</g>
<!-- 139917256247280&#45;&gt;139917256247672 -->
<g id="edge33" class="edge">
<title>139917256247280&#45;&gt;139917256247672</title>
<path fill="none" stroke="#000000" d="M501.0225,-367.64C482.9225,-356.89 462.0725,-341.74 448.4725,-323.09 389.7725,-242.59 367.3525,-123.92 359.4225,-64.205"/>
<polygon fill="#000000" stroke="#000000" points="362.8724,-63.5884 358.1425,-54.108 355.928,-64.4688 362.8724,-63.5884"/>
</g>
<!-- 139917256246776 -->
<g id="node27" class="node">
<title>139917256246776</title>
<ellipse fill="#cccccc" stroke="#000000" cx="547.4725" cy="-296.22" rx="90" ry="27"/>
<text text-anchor="middle" x="547.4725" y="-300.02" font-family="Times,serif" font-size="14.00" fill="#000000">coarse </text>
<text text-anchor="middle" x="547.4725" y="-285.02" font-family="Times,serif" font-size="14.00" fill="#000000"> (—, 10.0, 15.0)</text>
</g>
<!-- 139917256247280&#45;&gt;139917256246776 -->
<g id="edge34" class="edge">
<title>139917256247280&#45;&gt;139917256246776</title>
<path fill="none" stroke="#000000" d="M540.4725,-359.04C541.3725,-350.96 542.3725,-341.96 543.3325,-333.35"/>
<polygon fill="#000000" stroke="#000000" points="546.8423,-333.4564 544.4725,-323.13 539.8854,-332.6803 546.8423,-333.4564"/>
</g>
<!-- 139917256247840&#45;&gt;139917256248176 -->
<g id="edge36" class="edge">
<title>139917256247840&#45;&gt;139917256248176</title>
<path fill="none" stroke="#000000" d="M615.4725,-179.56C615.4725,-171.48 615.4725,-162.48 615.4725,-153.87"/>
<polygon fill="#000000" stroke="#000000" points="618.9726,-153.65 615.4725,-143.65 611.9726,-153.65 618.9726,-153.65"/>
</g>
<!-- 139917256248176&#45;&gt;139917256247672 -->
<g id="edge37" class="edge">
<title>139917256248176&#45;&gt;139917256247672</title>
<path fill="none" stroke="#000000" d="M573.9825,-102.42C533.0725,-88.301 469.8925,-66.494 421.9725,-49.954"/>
<polygon fill="#000000" stroke="#000000" points="422.8972,-46.5706 412.3025,-46.615 420.6125,-53.1872 422.8972,-46.5706"/>
</g>
<!-- 139917256461056 -->
<g id="node23" class="node">
<title>139917256461056</title>
<ellipse fill="#cccccc" stroke="#000000" cx="523.4725" cy="-1283.33" rx="112.5" ry="27"/>
<text text-anchor="middle" x="523.4725" y="-1287.13" font-family="Times,serif" font-size="14.00" fill="#000000">coarse </text>
<text text-anchor="middle" x="523.4725" y="-1272.13" font-family="Times,serif" font-size="14.00" fill="#000000"> ([1.0, 0.0], 0.0, 5.0)</text>
</g>
<!-- 139917256461056&#45;&gt;139917256134104 -->
<g id="edge24" class="edge">
<title>139917256461056&#45;&gt;139917256134104</title>
<path fill="none" stroke="#000000" d="M504.2125,-1256.83C497.5325,-1246.13 490.8625,-1233.23 487.4725,-1220.53 472.0425,-1162.53 484.7725,-1092.53 495.5325,-1050.73"/>
<polygon fill="#000000" stroke="#000000" points="498.9241,-1051.5952 498.1325,-1041.03 492.1627,-1049.7829 498.9241,-1051.5952"/>
</g>
<!-- 139917256115480 -->
<g id="node24" class="node">
<title>139917256115480</title>
<ellipse fill="#cccccc" stroke="#000000" cx="579.4725" cy="-1193.63" rx="83.5" ry="27"/>
<text text-anchor="middle" x="579.4725" y="-1197.43" font-family="Times,serif" font-size="14.00" fill="#000000">coarse </text>
<text text-anchor="middle" x="579.4725" y="-1182.43" font-family="Times,serif" font-size="14.00" fill="#000000"> (—, 5.0, 10.0)</text>
</g>
<!-- 139917256461056&#45;&gt;139917256115480 -->
<g id="edge25" class="edge">
<title>139917256461056&#45;&gt;139917256115480</title>
<path fill="none" stroke="#000000" d="M540.2725,-1256.43C545.6925,-1247.73 551.7825,-1238.03 557.5125,-1228.83"/>
<polygon fill="#000000" stroke="#000000" points="560.5534,-1230.5679 562.8725,-1220.23 554.6128,-1226.8654 560.5534,-1230.5679"/>
</g>
<!-- 139917256115480&#45;&gt;139917256134104 -->
<g id="edge26" class="edge">
<title>139917256115480&#45;&gt;139917256134104</title>
<path fill="none" stroke="#000000" d="M551.9225,-1168.13C542.0725,-1157.53 531.8425,-1144.43 525.4725,-1130.73 513.8625,-1105.83 509.2025,-1075.03 507.3925,-1051.33"/>
<polygon fill="#000000" stroke="#000000" points="510.8847,-1051.0942 506.7725,-1041.33 503.8981,-1051.5275 510.8847,-1051.0942"/>
</g>
<!-- 139917256118000 -->
<g id="node25" class="node">
<title>139917256118000</title>
<ellipse fill="#cccccc" stroke="#000000" cx="624.4725" cy="-1103.93" rx="90" ry="27"/>
<text text-anchor="middle" x="624.4725" y="-1107.73" font-family="Times,serif" font-size="14.00" fill="#000000">coarse </text>
<text text-anchor="middle" x="624.4725" y="-1092.73" font-family="Times,serif" font-size="14.00" fill="#000000"> (—, 10.0, 15.0)</text>
</g>
<!-- 139917256115480&#45;&gt;139917256118000 -->
<g id="edge27" class="edge">
<title>139917256115480&#45;&gt;139917256118000</title>
<path fill="none" stroke="#000000" d="M592.9725,-1166.73C597.2325,-1158.23 602.0225,-1148.63 606.5425,-1139.63"/>
<polygon fill="#000000" stroke="#000000" points="609.8,-1140.9407 611.1325,-1130.43 603.5362,-1137.8156 609.8,-1140.9407"/>
</g>
<!-- 139917256118000&#45;&gt;139917256134104 -->
<g id="edge28" class="edge">
<title>139917256118000&#45;&gt;139917256134104</title>
<path fill="none" stroke="#000000" d="M591.2825,-1078.63C578.0625,-1068.63 562.6925,-1056.93 548.6925,-1046.23"/>
<polygon fill="#000000" stroke="#000000" points="550.7185,-1043.374 540.6325,-1040.13 546.4941,-1048.9556 550.7185,-1043.374"/>
</g>
<!-- 139917256245880&#45;&gt;139917256246944 -->
<g id="edge31" class="edge">
<title>139917256245880&#45;&gt;139917256246944</title>
<path fill="none" stroke="#000000" d="M426.3925,-540.44C440.1125,-529.34 456.3625,-516.21 470.6125,-504.69"/>
<polygon fill="#000000" stroke="#000000" points="473.1713,-507.1218 478.7425,-498.11 468.7674,-501.6806 473.1713,-507.1218"/>
</g>
<!-- 139917256246776&#45;&gt;139917256247840 -->
<g id="edge35" class="edge">
<title>139917256246776&#45;&gt;139917256247840</title>
<path fill="none" stroke="#000000" d="M567.5025,-269.78C574.6625,-260.33 582.8325,-249.56 590.3625,-239.61"/>
<polygon fill="#000000" stroke="#000000" points="593.2589,-241.5829 596.5125,-231.5 587.6813,-237.3532 593.2589,-241.5829"/>
</g>
</g>
</svg>
