<?xml version="1.0" encoding="utf-8" standalone="no"?>
<!DOCTYPE svg PUBLIC "-//W3C//DTD SVG 1.1//EN"
  "http://www.w3.org/Graphics/SVG/1.1/DTD/svg11.dtd">
<!-- Created with matplotlib (https://matplotlib.org/) -->
<svg height="345.6pt" version="1.1" viewBox="0 0 460.8 345.6" width="460.8pt" xmlns="http://www.w3.org/2000/svg" xmlns:xlink="http://www.w3.org/1999/xlink">
 <defs>
  <style type="text/css">
*{stroke-linecap:butt;stroke-linejoin:round;white-space:pre;}
  </style>
 </defs>
 <g id="figure_1">
  <g id="patch_1">
   <path d="M 0 345.6 
L 460.8 345.6 
L 460.8 0 
L 0 0 
z
" style="fill:#ffffff;"/>
  </g>
  <g id="axes_1">
   <g id="patch_2">
    <path d="M 57.6 307.584 
L 414.72 307.584 
L 414.72 41.472 
L 57.6 41.472 
z
" style="fill:#ffffff;"/>
   </g>
   <g id="matplotlib.axis_1">
    <g id="xtick_1">
     <g id="line2d_1">
      <defs>
       <path d="M 0 0 
L 0 3.5 
" id="mbcdd8e24b1" style="stroke:#000000;stroke-width:0.8;"/>
      </defs>
      <g>
       <use style="stroke:#000000;stroke-width:0.8;" x="73.832727" xlink:href="#mbcdd8e24b1" y="307.584"/>
      </g>
     </g>
     <g id="text_1">
      <!-- 0 -->
      <defs>
       <path d="M 31.78125 66.40625 
Q 24.171875 66.40625 20.328125 58.90625 
Q 16.5 51.421875 16.5 36.375 
Q 16.5 21.390625 20.328125 13.890625 
Q 24.171875 6.390625 31.78125 6.390625 
Q 39.453125 6.390625 43.28125 13.890625 
Q 47.125 21.390625 47.125 36.375 
Q 47.125 51.421875 43.28125 58.90625 
Q 39.453125 66.40625 31.78125 66.40625 
z
M 31.78125 74.21875 
Q 44.046875 74.21875 50.515625 64.515625 
Q 56.984375 54.828125 56.984375 36.375 
Q 56.984375 17.96875 50.515625 8.265625 
Q 44.046875 -1.421875 31.78125 -1.421875 
Q 19.53125 -1.421875 13.0625 8.265625 
Q 6.59375 17.96875 6.59375 36.375 
Q 6.59375 54.828125 13.0625 64.515625 
Q 19.53125 74.21875 31.78125 74.21875 
z
" id="DejaVuSans-48"/>
      </defs>
      <g transform="translate(70.651477 322.182437)scale(0.1 -0.1)">
       <use xlink:href="#DejaVuSans-48"/>
      </g>
     </g>
    </g>
    <g id="xtick_2">
     <g id="line2d_2">
      <g>
       <use style="stroke:#000000;stroke-width:0.8;" x="117.12" xlink:href="#mbcdd8e24b1" y="307.584"/>
      </g>
     </g>
     <g id="text_2">
      <!-- 2 -->
      <defs>
       <path d="M 19.1875 8.296875 
L 53.609375 8.296875 
L 53.609375 0 
L 7.328125 0 
L 7.328125 8.296875 
Q 12.9375 14.109375 22.625 23.890625 
Q 32.328125 33.6875 34.8125 36.53125 
Q 39.546875 41.84375 41.421875 45.53125 
Q 43.3125 49.21875 43.3125 52.78125 
Q 43.3125 58.59375 39.234375 62.25 
Q 35.15625 65.921875 28.609375 65.921875 
Q 23.96875 65.921875 18.8125 64.3125 
Q 13.671875 62.703125 7.8125 59.421875 
L 7.8125 69.390625 
Q 13.765625 71.78125 18.9375 73 
Q 24.125 74.21875 28.421875 74.21875 
Q 39.75 74.21875 46.484375 68.546875 
Q 53.21875 62.890625 53.21875 53.421875 
Q 53.21875 48.921875 51.53125 44.890625 
Q 49.859375 40.875 45.40625 35.40625 
Q 44.1875 33.984375 37.640625 27.21875 
Q 31.109375 20.453125 19.1875 8.296875 
z
" id="DejaVuSans-50"/>
      </defs>
      <g transform="translate(113.93875 322.182437)scale(0.1 -0.1)">
       <use xlink:href="#DejaVuSans-50"/>
      </g>
     </g>
    </g>
    <g id="xtick_3">
     <g id="line2d_3">
      <g>
       <use style="stroke:#000000;stroke-width:0.8;" x="160.407273" xlink:href="#mbcdd8e24b1" y="307.584"/>
      </g>
     </g>
     <g id="text_3">
      <!-- 4 -->
      <defs>
       <path d="M 37.796875 64.3125 
L 12.890625 25.390625 
L 37.796875 25.390625 
z
M 35.203125 72.90625 
L 47.609375 72.90625 
L 47.609375 25.390625 
L 58.015625 25.390625 
L 58.015625 17.1875 
L 47.609375 17.1875 
L 47.609375 0 
L 37.796875 0 
L 37.796875 17.1875 
L 4.890625 17.1875 
L 4.890625 26.703125 
z
" id="DejaVuSans-52"/>
      </defs>
      <g transform="translate(157.226023 322.182437)scale(0.1 -0.1)">
       <use xlink:href="#DejaVuSans-52"/>
      </g>
     </g>
    </g>
    <g id="xtick_4">
     <g id="line2d_4">
      <g>
       <use style="stroke:#000000;stroke-width:0.8;" x="203.694545" xlink:href="#mbcdd8e24b1" y="307.584"/>
      </g>
     </g>
     <g id="text_4">
      <!-- 6 -->
      <defs>
       <path d="M 33.015625 40.375 
Q 26.375 40.375 22.484375 35.828125 
Q 18.609375 31.296875 18.609375 23.390625 
Q 18.609375 15.53125 22.484375 10.953125 
Q 26.375 6.390625 33.015625 6.390625 
Q 39.65625 6.390625 43.53125 10.953125 
Q 47.40625 15.53125 47.40625 23.390625 
Q 47.40625 31.296875 43.53125 35.828125 
Q 39.65625 40.375 33.015625 40.375 
z
M 52.59375 71.296875 
L 52.59375 62.3125 
Q 48.875 64.0625 45.09375 64.984375 
Q 41.3125 65.921875 37.59375 65.921875 
Q 27.828125 65.921875 22.671875 59.328125 
Q 17.53125 52.734375 16.796875 39.40625 
Q 19.671875 43.65625 24.015625 45.921875 
Q 28.375 48.1875 33.59375 48.1875 
Q 44.578125 48.1875 50.953125 41.515625 
Q 57.328125 34.859375 57.328125 23.390625 
Q 57.328125 12.15625 50.6875 5.359375 
Q 44.046875 -1.421875 33.015625 -1.421875 
Q 20.359375 -1.421875 13.671875 8.265625 
Q 6.984375 17.96875 6.984375 36.375 
Q 6.984375 53.65625 15.1875 63.9375 
Q 23.390625 74.21875 37.203125 74.21875 
Q 40.921875 74.21875 44.703125 73.484375 
Q 48.484375 72.75 52.59375 71.296875 
z
" id="DejaVuSans-54"/>
      </defs>
      <g transform="translate(200.513295 322.182437)scale(0.1 -0.1)">
       <use xlink:href="#DejaVuSans-54"/>
      </g>
     </g>
    </g>
    <g id="xtick_5">
     <g id="line2d_5">
      <g>
       <use style="stroke:#000000;stroke-width:0.8;" x="246.981818" xlink:href="#mbcdd8e24b1" y="307.584"/>
      </g>
     </g>
     <g id="text_5">
      <!-- 8 -->
      <defs>
       <path d="M 31.78125 34.625 
Q 24.75 34.625 20.71875 30.859375 
Q 16.703125 27.09375 16.703125 20.515625 
Q 16.703125 13.921875 20.71875 10.15625 
Q 24.75 6.390625 31.78125 6.390625 
Q 38.8125 6.390625 42.859375 10.171875 
Q 46.921875 13.96875 46.921875 20.515625 
Q 46.921875 27.09375 42.890625 30.859375 
Q 38.875 34.625 31.78125 34.625 
z
M 21.921875 38.8125 
Q 15.578125 40.375 12.03125 44.71875 
Q 8.5 49.078125 8.5 55.328125 
Q 8.5 64.0625 14.71875 69.140625 
Q 20.953125 74.21875 31.78125 74.21875 
Q 42.671875 74.21875 48.875 69.140625 
Q 55.078125 64.0625 55.078125 55.328125 
Q 55.078125 49.078125 51.53125 44.71875 
Q 48 40.375 41.703125 38.8125 
Q 48.828125 37.15625 52.796875 32.3125 
Q 56.78125 27.484375 56.78125 20.515625 
Q 56.78125 9.90625 50.3125 4.234375 
Q 43.84375 -1.421875 31.78125 -1.421875 
Q 19.734375 -1.421875 13.25 4.234375 
Q 6.78125 9.90625 6.78125 20.515625 
Q 6.78125 27.484375 10.78125 32.3125 
Q 14.796875 37.15625 21.921875 38.8125 
z
M 18.3125 54.390625 
Q 18.3125 48.734375 21.84375 45.5625 
Q 25.390625 42.390625 31.78125 42.390625 
Q 38.140625 42.390625 41.71875 45.5625 
Q 45.3125 48.734375 45.3125 54.390625 
Q 45.3125 60.0625 41.71875 63.234375 
Q 38.140625 66.40625 31.78125 66.40625 
Q 25.390625 66.40625 21.84375 63.234375 
Q 18.3125 60.0625 18.3125 54.390625 
z
" id="DejaVuSans-56"/>
      </defs>
      <g transform="translate(243.800568 322.182437)scale(0.1 -0.1)">
       <use xlink:href="#DejaVuSans-56"/>
      </g>
     </g>
    </g>
    <g id="xtick_6">
     <g id="line2d_6">
      <g>
       <use style="stroke:#000000;stroke-width:0.8;" x="290.269091" xlink:href="#mbcdd8e24b1" y="307.584"/>
      </g>
     </g>
     <g id="text_6">
      <!-- 10 -->
      <defs>
       <path d="M 12.40625 8.296875 
L 28.515625 8.296875 
L 28.515625 63.921875 
L 10.984375 60.40625 
L 10.984375 69.390625 
L 28.421875 72.90625 
L 38.28125 72.90625 
L 38.28125 8.296875 
L 54.390625 8.296875 
L 54.390625 0 
L 12.40625 0 
z
" id="DejaVuSans-49"/>
      </defs>
      <g transform="translate(283.906591 322.182437)scale(0.1 -0.1)">
       <use xlink:href="#DejaVuSans-49"/>
       <use x="63.623047" xlink:href="#DejaVuSans-48"/>
      </g>
     </g>
    </g>
    <g id="xtick_7">
     <g id="line2d_7">
      <g>
       <use style="stroke:#000000;stroke-width:0.8;" x="333.556364" xlink:href="#mbcdd8e24b1" y="307.584"/>
      </g>
     </g>
     <g id="text_7">
      <!-- 12 -->
      <g transform="translate(327.193864 322.182437)scale(0.1 -0.1)">
       <use xlink:href="#DejaVuSans-49"/>
       <use x="63.623047" xlink:href="#DejaVuSans-50"/>
      </g>
     </g>
    </g>
    <g id="xtick_8">
     <g id="line2d_8">
      <g>
       <use style="stroke:#000000;stroke-width:0.8;" x="376.843636" xlink:href="#mbcdd8e24b1" y="307.584"/>
      </g>
     </g>
     <g id="text_8">
      <!-- 14 -->
      <g transform="translate(370.481136 322.182437)scale(0.1 -0.1)">
       <use xlink:href="#DejaVuSans-49"/>
       <use x="63.623047" xlink:href="#DejaVuSans-52"/>
      </g>
     </g>
    </g>
   </g>
   <g id="matplotlib.axis_2">
    <g id="ytick_1">
     <g id="line2d_9">
      <defs>
       <path d="M 0 0 
L -3.5 0 
" id="m6db2439187" style="stroke:#000000;stroke-width:0.8;"/>
      </defs>
      <g>
       <use style="stroke:#000000;stroke-width:0.8;" x="57.6" xlink:href="#m6db2439187" y="295.221645"/>
      </g>
     </g>
     <g id="text_9">
      <!-- −0.6 -->
      <defs>
       <path d="M 10.59375 35.5 
L 73.1875 35.5 
L 73.1875 27.203125 
L 10.59375 27.203125 
z
" id="DejaVuSans-8722"/>
       <path d="M 10.6875 12.40625 
L 21 12.40625 
L 21 0 
L 10.6875 0 
z
" id="DejaVuSans-46"/>
      </defs>
      <g transform="translate(26.317187 299.020863)scale(0.1 -0.1)">
       <use xlink:href="#DejaVuSans-8722"/>
       <use x="83.789062" xlink:href="#DejaVuSans-48"/>
       <use x="147.412109" xlink:href="#DejaVuSans-46"/>
       <use x="179.199219" xlink:href="#DejaVuSans-54"/>
      </g>
     </g>
    </g>
    <g id="ytick_2">
     <g id="line2d_10">
      <g>
       <use style="stroke:#000000;stroke-width:0.8;" x="57.6" xlink:href="#m6db2439187" y="265.014939"/>
      </g>
     </g>
     <g id="text_10">
      <!-- −0.4 -->
      <g transform="translate(26.317187 268.814158)scale(0.1 -0.1)">
       <use xlink:href="#DejaVuSans-8722"/>
       <use x="83.789062" xlink:href="#DejaVuSans-48"/>
       <use x="147.412109" xlink:href="#DejaVuSans-46"/>
       <use x="179.199219" xlink:href="#DejaVuSans-52"/>
      </g>
     </g>
    </g>
    <g id="ytick_3">
     <g id="line2d_11">
      <g>
       <use style="stroke:#000000;stroke-width:0.8;" x="57.6" xlink:href="#m6db2439187" y="234.808234"/>
      </g>
     </g>
     <g id="text_11">
      <!-- −0.2 -->
      <g transform="translate(26.317187 238.607452)scale(0.1 -0.1)">
       <use xlink:href="#DejaVuSans-8722"/>
       <use x="83.789062" xlink:href="#DejaVuSans-48"/>
       <use x="147.412109" xlink:href="#DejaVuSans-46"/>
       <use x="179.199219" xlink:href="#DejaVuSans-50"/>
      </g>
     </g>
    </g>
    <g id="ytick_4">
     <g id="line2d_12">
      <g>
       <use style="stroke:#000000;stroke-width:0.8;" x="57.6" xlink:href="#m6db2439187" y="204.601528"/>
      </g>
     </g>
     <g id="text_12">
      <!-- 0.0 -->
      <g transform="translate(34.696875 208.400747)scale(0.1 -0.1)">
       <use xlink:href="#DejaVuSans-48"/>
       <use x="63.623047" xlink:href="#DejaVuSans-46"/>
       <use x="95.410156" xlink:href="#DejaVuSans-48"/>
      </g>
     </g>
    </g>
    <g id="ytick_5">
     <g id="line2d_13">
      <g>
       <use style="stroke:#000000;stroke-width:0.8;" x="57.6" xlink:href="#m6db2439187" y="174.394822"/>
      </g>
     </g>
     <g id="text_13">
      <!-- 0.2 -->
      <g transform="translate(34.696875 178.194041)scale(0.1 -0.1)">
       <use xlink:href="#DejaVuSans-48"/>
       <use x="63.623047" xlink:href="#DejaVuSans-46"/>
       <use x="95.410156" xlink:href="#DejaVuSans-50"/>
      </g>
     </g>
    </g>
    <g id="ytick_6">
     <g id="line2d_14">
      <g>
       <use style="stroke:#000000;stroke-width:0.8;" x="57.6" xlink:href="#m6db2439187" y="144.188117"/>
      </g>
     </g>
     <g id="text_14">
      <!-- 0.4 -->
      <g transform="translate(34.696875 147.987336)scale(0.1 -0.1)">
       <use xlink:href="#DejaVuSans-48"/>
       <use x="63.623047" xlink:href="#DejaVuSans-46"/>
       <use x="95.410156" xlink:href="#DejaVuSans-52"/>
      </g>
     </g>
    </g>
    <g id="ytick_7">
     <g id="line2d_15">
      <g>
       <use style="stroke:#000000;stroke-width:0.8;" x="57.6" xlink:href="#m6db2439187" y="113.981411"/>
      </g>
     </g>
     <g id="text_15">
      <!-- 0.6 -->
      <g transform="translate(34.696875 117.78063)scale(0.1 -0.1)">
       <use xlink:href="#DejaVuSans-48"/>
       <use x="63.623047" xlink:href="#DejaVuSans-46"/>
       <use x="95.410156" xlink:href="#DejaVuSans-54"/>
      </g>
     </g>
    </g>
    <g id="ytick_8">
     <g id="line2d_16">
      <g>
       <use style="stroke:#000000;stroke-width:0.8;" x="57.6" xlink:href="#m6db2439187" y="83.774706"/>
      </g>
     </g>
     <g id="text_16">
      <!-- 0.8 -->
      <g transform="translate(34.696875 87.573924)scale(0.1 -0.1)">
       <use xlink:href="#DejaVuSans-48"/>
       <use x="63.623047" xlink:href="#DejaVuSans-46"/>
       <use x="95.410156" xlink:href="#DejaVuSans-56"/>
      </g>
     </g>
    </g>
    <g id="ytick_9">
     <g id="line2d_17">
      <g>
       <use style="stroke:#000000;stroke-width:0.8;" x="57.6" xlink:href="#m6db2439187" y="53.568"/>
      </g>
     </g>
     <g id="text_17">
      <!-- 1.0 -->
      <g transform="translate(34.696875 57.367219)scale(0.1 -0.1)">
       <use xlink:href="#DejaVuSans-49"/>
       <use x="63.623047" xlink:href="#DejaVuSans-46"/>
       <use x="95.410156" xlink:href="#DejaVuSans-48"/>
      </g>
     </g>
    </g>
   </g>
   <g id="line2d_18">
    <path clip-path="url(#pedd085f732)" d="M 73.832727 53.568 
L 77.112066 53.568 
L 80.391405 57.035253 
L 83.670744 63.444417 
L 86.950083 72.270151 
L 90.229421 82.999174 
L 93.50876 95.140498 
L 96.788099 108.233833 
L 100.067438 121.856209 
L 103.346777 135.626887 
L 106.626116 149.210669 
L 109.905455 162.319743 
L 113.184793 174.714192 
L 116.464132 186.201351 
L 119.743471 196.63415 
L 123.02281 205.908632 
L 126.302149 213.960795 
L 129.581488 220.762926 
L 132.860826 226.319572 
L 136.140165 230.663288 
L 139.419504 233.850287 
L 142.698843 235.956112 
L 145.978182 237.071413 
L 149.257521 237.297927 
L 152.53686 236.744715 
L 155.816198 235.524716 
L 159.095537 233.75166 
L 162.374876 231.53735 
L 165.654215 228.989347 
L 168.933554 226.209043 
L 172.212893 223.290131 
L 175.492231 220.317437 
L 178.77157 217.36612 
L 182.050909 214.501185 
L 185.330248 211.777296 
L 188.609587 209.238853 
L 191.888926 206.920289 
L 195.168264 204.846565 
L 198.447603 203.03381 
L 201.726942 201.490089 
L 205.006281 200.216256 
L 208.28562 199.206856 
L 211.564959 198.451067 
L 214.844298 197.933637 
L 218.123636 197.6358 
L 221.402975 197.536164 
L 224.682314 197.611535 
L 227.961653 197.837685 
L 231.240992 198.190038 
L 234.520331 198.644281 
L 237.799669 199.176886 
L 241.079008 199.765553 
L 244.358347 200.389561 
L 247.637686 201.030041 
L 250.917025 201.670172 
L 254.196364 202.295304 
L 257.475702 202.893013 
L 260.755041 203.453104 
L 264.03438 203.967554 
L 267.313719 204.430422 
L 270.593058 204.837713 
L 273.872397 205.18722 
L 277.151736 205.47835 
L 280.431074 205.711924 
L 283.710413 205.889979 
L 286.989752 206.015564 
L 290.269091 206.092543 
L 293.54843 206.125396 
L 296.827769 206.119043 
L 300.107107 206.078669 
L 303.386446 206.009575 
L 306.665785 205.917039 
L 309.945124 205.8062 
L 313.224463 205.681954 
L 316.503802 205.548878 
L 319.78314 205.411162 
L 323.062479 205.272564 
L 326.341818 205.136379 
L 329.621157 205.005423 
L 332.900496 204.88203 
L 336.179835 204.768061 
L 339.459174 204.664921 
L 342.738512 204.573585 
L 346.017851 204.494632 
L 349.29719 204.428284 
L 352.576529 204.374442 
L 355.855868 204.332735 
L 359.135207 204.302561 
L 362.414545 204.283129 
L 365.693884 204.273505 
L 368.973223 204.272648 
L 372.252562 204.279451 
L 375.531901 204.292774 
L 378.81124 204.311472 
L 382.090579 204.334425 
L 385.369917 204.360559 
L 388.649256 204.388865 
L 391.928595 204.418414 
L 395.207934 204.448369 
L 398.487273 204.477988 
" style="fill:none;stroke:#6a5acd;stroke-linecap:square;stroke-width:1.5;"/>
   </g>
   <g id="line2d_19">
    <path clip-path="url(#pedd085f732)" d="M 73.832727 53.568 
L 77.112066 55.214167 
L 80.391405 59.805104 
L 83.670744 66.829179 
L 86.950083 75.794963 
L 90.229421 86.238833 
L 93.50876 97.730924 
L 96.788099 109.879522 
L 100.067438 122.334026 
L 103.346777 134.786625 
L 106.626116 146.972825 
L 109.905455 158.670983 
L 113.184793 169.700992 
L 116.464132 179.922277 
L 119.743471 189.231218 
L 123.02281 197.558165 
L 126.302149 204.864137 
L 129.581488 211.137341 
L 132.860826 216.389602 
L 136.140165 220.652787 
L 139.419504 223.975313 
L 142.698843 226.418791 
L 145.978182 228.054859 
L 149.257521 228.962248 
L 152.53686 229.224115 
L 155.816198 228.925649 
L 159.095537 228.151977 
L 162.374876 226.98636 
L 165.654215 225.508685 
L 168.933554 223.794245 
L 172.212893 221.91278 
L 175.492231 219.927774 
L 178.77157 217.89599 
L 182.050909 215.867204 
L 185.330248 213.88413 
L 188.609587 211.982503 
L 191.888926 210.191304 
L 195.168264 208.533091 
L 198.447603 207.024424 
L 201.726942 205.676354 
L 205.006281 204.494963 
L 208.28562 203.481936 
L 211.564959 202.63514 
L 214.844298 201.949207 
L 218.123636 201.416106 
L 221.402975 201.025684 
L 224.682314 200.766181 
L 227.961653 200.624709 
L 231.240992 200.58768 
L 234.520331 200.641198 
L 237.799669 200.771395 
L 241.079008 200.964721 
L 244.358347 201.208191 
L 247.637686 201.489578 
L 250.917025 201.797569 
L 254.196364 202.121874 
L 257.475702 202.453304 
L 260.755041 202.783812 
L 264.03438 203.1065 
L 267.313719 203.415605 
L 270.593058 203.706467 
L 273.872397 203.975466 
L 277.151736 204.219955 
L 280.431074 204.438184 
L 283.710413 204.629203 
L 286.989752 204.792778 
L 290.269091 204.929288 
L 293.54843 205.039637 
L 296.827769 205.125157 
L 300.107107 205.18752 
L 303.386446 205.228656 
L 306.665785 205.250674 
L 309.945124 205.255795 
L 313.224463 205.246286 
L 316.503802 205.224404 
L 319.78314 205.192356 
L 323.062479 205.152252 
L 326.341818 205.106077 
L 329.621157 205.055666 
L 332.900496 205.002687 
L 336.179835 204.948628 
L 339.459174 204.894789 
L 342.738512 204.842284 
L 346.017851 204.792042 
L 349.29719 204.744814 
L 352.576529 204.701179 
L 355.855868 204.66156 
L 359.135207 204.626235 
L 362.414545 204.595351 
L 365.693884 204.568941 
L 368.973223 204.546937 
L 372.252562 204.529187 
L 375.531901 204.515471 
L 378.81124 204.505513 
L 382.090579 204.498996 
L 385.369917 204.495575 
L 388.649256 204.494889 
L 391.928595 204.496566 
L 395.207934 204.500239 
L 398.487273 204.505549 
" style="fill:none;stroke:#000000;stroke-linecap:square;stroke-width:1.5;"/>
   </g>
   <g id="line2d_20">
    <path clip-path="url(#pedd085f732)" d="M 73.832727 204.601528 
L 77.112066 227.485396 
L 80.391405 246.902011 
L 83.670744 262.851373 
L 86.950083 275.41308 
L 90.229421 284.734266 
L 93.50876 291.017541 
L 96.788099 294.50921 
L 100.067438 295.488 
L 103.346777 294.254492 
L 106.626116 291.121413 
L 109.905455 286.404894 
L 113.184793 280.416775 
L 116.464132 273.458001 
L 119.743471 265.813107 
L 123.02281 257.745804 
L 126.302149 249.495595 
L 129.581488 241.275393 
L 132.860826 233.27005 
L 136.140165 225.635722 
L 139.419504 218.499971 
L 142.698843 211.962516 
L 145.978182 206.096521 
L 149.257521 200.950327 
L 152.53686 196.549539 
L 155.816198 192.899358 
L 159.095537 189.987082 
L 162.374876 187.784706 
L 165.654215 186.251524 
L 168.933554 185.336703 
L 172.212893 184.98175 
L 175.492231 185.122837 
L 178.77157 185.692956 
L 182.050909 186.623862 
L 185.330248 187.847803 
L 188.609587 189.299008 
L 191.888926 190.914947 
L 195.168264 192.637344 
L 198.447603 194.412972 
L 201.726942 196.194226 
L 205.006281 197.93949 
L 208.28562 199.613324 
L 211.564959 201.186487 
L 214.844298 202.635806 
L 218.123636 203.943929 
L 221.402975 205.098978 
L 224.682314 206.094117 
L 227.961653 206.927057 
L 231.240992 207.599529 
L 234.520331 208.116724 
L 237.799669 208.486732 
L 241.079008 208.71998 
L 244.358347 208.828695 
L 247.637686 208.826392 
L 250.917025 208.727396 
L 254.196364 208.546409 
L 257.475702 208.298128 
L 260.755041 207.996903 
L 264.03438 207.656456 
L 267.313719 207.289644 
L 270.593058 206.908279 
L 273.872397 206.522986 
L 277.151736 206.143115 
L 280.431074 205.776689 
L 283.710413 205.430392 
L 286.989752 205.109587 
L 290.269091 204.81836 
L 293.54843 204.559596 
L 296.827769 204.33506 
L 300.107107 204.145507 
L 303.386446 203.990792 
L 306.665785 203.869987 
L 309.945124 203.781507 
L 313.224463 203.723226 
L 316.503802 203.692601 
L 319.78314 203.68678 
L 323.062479 203.702706 
L 326.341818 203.737219 
L 329.621157 203.787137 
L 332.900496 203.849333 
L 336.179835 203.920802 
L 339.459174 203.99871 
L 342.738512 204.080441 
L 346.017851 204.163627 
L 349.29719 204.246172 
L 352.576529 204.326263 
L 355.855868 204.402377 
L 359.135207 204.473277 
L 362.414545 204.538007 
L 365.693884 204.595874 
L 368.973223 204.646431 
L 372.252562 204.689458 
L 375.531901 204.724935 
L 378.81124 204.753018 
L 382.090579 204.774012 
L 385.369917 204.788349 
L 388.649256 204.796553 
L 391.928595 204.799225 
L 395.207934 204.797016 
L 398.487273 204.790602 
" style="fill:none;stroke:#6a5acd;stroke-dasharray:1.5,2.475;stroke-dashoffset:0;stroke-width:1.5;"/>
   </g>
   <g id="line2d_21">
    <path clip-path="url(#pedd085f732)" d="M 73.832727 204.601528 
L 77.112066 225.754986 
L 80.391405 243.484614 
L 83.670744 257.894826 
L 86.950083 269.145933 
L 90.229421 277.442872 
L 93.50876 283.024579 
L 96.788099 286.154127 
L 100.067438 287.109738 
L 103.346777 286.176739 
L 106.626116 283.640496 
L 109.905455 279.780343 
L 113.184793 274.864488 
L 116.464132 269.145876 
L 119.743471 262.858958 
L 123.02281 256.217304 
L 126.302149 249.412002 
L 129.581488 242.61075 
L 132.860826 235.957584 
L 136.140165 229.573142 
L 139.419504 223.555385 
L 142.698843 217.980706 
L 145.978182 212.905338 
L 149.257521 208.366989 
L 152.53686 204.386651 
L 155.816198 200.970497 
L 159.095537 198.11184 
L 162.374876 195.793077 
L 165.654215 193.987602 
L 168.933554 192.661637 
L 172.212893 191.775958 
L 175.492231 191.287492 
L 178.77157 191.150781 
L 182.050909 191.319274 
L 185.330248 191.74648 
L 188.609587 192.386941 
L 191.888926 193.197058 
L 195.168264 194.135754 
L 198.447603 195.164993 
L 201.726942 196.250161 
L 205.006281 197.360324 
L 208.28562 198.468362 
L 211.564959 199.551017 
L 214.844298 200.588837 
L 218.123636 201.566061 
L 221.402975 202.470431 
L 224.682314 203.292962 
L 227.961653 204.02767 
L 231.240992 204.671284 
L 234.520331 205.222925 
L 237.799669 205.683797 
L 241.079008 206.056861 
L 244.358347 206.346532 
L 247.637686 206.558375 
L 250.917025 206.698828 
L 254.196364 206.774942 
L 257.475702 206.794145 
L 260.755041 206.764029 
L 264.03438 206.692169 
L 267.313719 206.585962 
L 270.593058 206.452495 
L 273.872397 206.298438 
L 277.151736 206.129962 
L 280.431074 205.952676 
L 283.710413 205.771588 
L 286.989752 205.591083 
L 290.269091 205.414916 
L 293.54843 205.246224 
L 296.827769 205.087541 
L 300.107107 204.940836 
L 303.386446 204.807542 
L 306.665785 204.688608 
L 309.945124 204.584545 
L 313.224463 204.495473 
L 316.503802 204.421179 
L 319.78314 204.361165 
L 323.062479 204.3147 
L 326.341818 204.280865 
L 329.621157 204.258605 
L 332.900496 204.246766 
L 336.179835 204.244135 
L 339.459174 204.249472 
L 342.738512 204.261544 
L 346.017851 204.279147 
L 349.29719 204.30113 
L 352.576529 204.326409 
L 355.855868 204.353983 
L 359.135207 204.382944 
L 362.414545 204.41248 
L 365.693884 204.441883 
L 368.973223 204.470547 
L 372.252562 204.497965 
L 375.531901 204.523731 
L 378.81124 204.547528 
L 382.090579 204.569127 
L 385.369917 204.588379 
L 388.649256 204.605203 
L 391.928595 204.619584 
L 395.207934 204.631559 
L 398.487273 204.641212 
" style="fill:none;stroke:#000000;stroke-dasharray:1.5,2.475;stroke-dashoffset:0;stroke-width:1.5;"/>
   </g>
   <g id="patch_3">
    <path d="M 57.6 307.584 
L 57.6 41.472 
" style="fill:none;stroke:#000000;stroke-linecap:square;stroke-linejoin:miter;stroke-width:0.8;"/>
   </g>
   <g id="patch_4">
    <path d="M 414.72 307.584 
L 414.72 41.472 
" style="fill:none;stroke:#000000;stroke-linecap:square;stroke-linejoin:miter;stroke-width:0.8;"/>
   </g>
   <g id="patch_5">
    <path d="M 57.6 307.584 
L 414.72 307.584 
" style="fill:none;stroke:#000000;stroke-linecap:square;stroke-linejoin:miter;stroke-width:0.8;"/>
   </g>
   <g id="patch_6">
    <path d="M 57.6 41.472 
L 414.72 41.472 
" style="fill:none;stroke:#000000;stroke-linecap:square;stroke-linejoin:miter;stroke-width:0.8;"/>
   </g>
   <g id="legend_1">
    <g id="patch_7">
     <path d="M 348.102813 78.82825 
L 407.72 78.82825 
Q 409.72 78.82825 409.72 76.82825 
L 409.72 48.472 
Q 409.72 46.472 407.72 46.472 
L 348.102813 46.472 
Q 346.102813 46.472 346.102813 48.472 
L 346.102813 76.82825 
Q 346.102813 78.82825 348.102813 78.82825 
z
" style="fill:#ffffff;opacity:0.8;stroke:#cccccc;stroke-linejoin:miter;"/>
    </g>
    <g id="line2d_22">
     <path d="M 350.102813 54.570437 
L 370.102813 54.570437 
" style="fill:none;stroke:#6a5acd;stroke-linecap:square;stroke-width:1.5;"/>
    </g>
    <g id="line2d_23"/>
    <g id="text_18">
     <!-- euler -->
     <defs>
      <path d="M 56.203125 29.59375 
L 56.203125 25.203125 
L 14.890625 25.203125 
Q 15.484375 15.921875 20.484375 11.0625 
Q 25.484375 6.203125 34.421875 6.203125 
Q 39.59375 6.203125 44.453125 7.46875 
Q 49.3125 8.734375 54.109375 11.28125 
L 54.109375 2.78125 
Q 49.265625 0.734375 44.1875 -0.34375 
Q 39.109375 -1.421875 33.890625 -1.421875 
Q 20.796875 -1.421875 13.15625 6.1875 
Q 5.515625 13.8125 5.515625 26.8125 
Q 5.515625 40.234375 12.765625 48.109375 
Q 20.015625 56 32.328125 56 
Q 43.359375 56 49.78125 48.890625 
Q 56.203125 41.796875 56.203125 29.59375 
z
M 47.21875 32.234375 
Q 47.125 39.59375 43.09375 43.984375 
Q 39.0625 48.390625 32.421875 48.390625 
Q 24.90625 48.390625 20.390625 44.140625 
Q 15.875 39.890625 15.1875 32.171875 
z
" id="DejaVuSans-101"/>
      <path d="M 8.5 21.578125 
L 8.5 54.6875 
L 17.484375 54.6875 
L 17.484375 21.921875 
Q 17.484375 14.15625 20.5 10.265625 
Q 23.53125 6.390625 29.59375 6.390625 
Q 36.859375 6.390625 41.078125 11.03125 
Q 45.3125 15.671875 45.3125 23.6875 
L 45.3125 54.6875 
L 54.296875 54.6875 
L 54.296875 0 
L 45.3125 0 
L 45.3125 8.40625 
Q 42.046875 3.421875 37.71875 1 
Q 33.40625 -1.421875 27.6875 -1.421875 
Q 18.265625 -1.421875 13.375 4.4375 
Q 8.5 10.296875 8.5 21.578125 
z
M 31.109375 56 
z
" id="DejaVuSans-117"/>
      <path d="M 9.421875 75.984375 
L 18.40625 75.984375 
L 18.40625 0 
L 9.421875 0 
z
" id="DejaVuSans-108"/>
      <path d="M 41.109375 46.296875 
Q 39.59375 47.171875 37.8125 47.578125 
Q 36.03125 48 33.890625 48 
Q 26.265625 48 22.1875 43.046875 
Q 18.109375 38.09375 18.109375 28.8125 
L 18.109375 0 
L 9.078125 0 
L 9.078125 54.6875 
L 18.109375 54.6875 
L 18.109375 46.1875 
Q 20.953125 51.171875 25.484375 53.578125 
Q 30.03125 56 36.53125 56 
Q 37.453125 56 38.578125 55.875 
Q 39.703125 55.765625 41.0625 55.515625 
z
" id="DejaVuSans-114"/>
     </defs>
     <g transform="translate(378.102813 58.070437)scale(0.1 -0.1)">
      <use xlink:href="#DejaVuSans-101"/>
      <use x="61.523438" xlink:href="#DejaVuSans-117"/>
      <use x="124.902344" xlink:href="#DejaVuSans-108"/>
      <use x="152.685547" xlink:href="#DejaVuSans-101"/>
      <use x="214.208984" xlink:href="#DejaVuSans-114"/>
     </g>
    </g>
    <g id="line2d_24">
     <path d="M 350.102813 69.248562 
L 370.102813 69.248562 
" style="fill:none;stroke:#000000;stroke-linecap:square;stroke-width:1.5;"/>
    </g>
    <g id="line2d_25"/>
    <g id="text_19">
     <!-- exact -->
     <defs>
      <path d="M 54.890625 54.6875 
L 35.109375 28.078125 
L 55.90625 0 
L 45.3125 0 
L 29.390625 21.484375 
L 13.484375 0 
L 2.875 0 
L 24.125 28.609375 
L 4.6875 54.6875 
L 15.28125 54.6875 
L 29.78125 35.203125 
L 44.28125 54.6875 
z
" id="DejaVuSans-120"/>
      <path d="M 34.28125 27.484375 
Q 23.390625 27.484375 19.1875 25 
Q 14.984375 22.515625 14.984375 16.5 
Q 14.984375 11.71875 18.140625 8.90625 
Q 21.296875 6.109375 26.703125 6.109375 
Q 34.1875 6.109375 38.703125 11.40625 
Q 43.21875 16.703125 43.21875 25.484375 
L 43.21875 27.484375 
z
M 52.203125 31.203125 
L 52.203125 0 
L 43.21875 0 
L 43.21875 8.296875 
Q 40.140625 3.328125 35.546875 0.953125 
Q 30.953125 -1.421875 24.3125 -1.421875 
Q 15.921875 -1.421875 10.953125 3.296875 
Q 6 8.015625 6 15.921875 
Q 6 25.140625 12.171875 29.828125 
Q 18.359375 34.515625 30.609375 34.515625 
L 43.21875 34.515625 
L 43.21875 35.40625 
Q 43.21875 41.609375 39.140625 45 
Q 35.0625 48.390625 27.6875 48.390625 
Q 23 48.390625 18.546875 47.265625 
Q 14.109375 46.140625 10.015625 43.890625 
L 10.015625 52.203125 
Q 14.9375 54.109375 19.578125 55.046875 
Q 24.21875 56 28.609375 56 
Q 40.484375 56 46.34375 49.84375 
Q 52.203125 43.703125 52.203125 31.203125 
z
" id="DejaVuSans-97"/>
      <path d="M 48.78125 52.59375 
L 48.78125 44.1875 
Q 44.96875 46.296875 41.140625 47.34375 
Q 37.3125 48.390625 33.40625 48.390625 
Q 24.65625 48.390625 19.8125 42.84375 
Q 14.984375 37.3125 14.984375 27.296875 
Q 14.984375 17.28125 19.8125 11.734375 
Q 24.65625 6.203125 33.40625 6.203125 
Q 37.3125 6.203125 41.140625 7.25 
Q 44.96875 8.296875 48.78125 10.40625 
L 48.78125 2.09375 
Q 45.015625 0.34375 40.984375 -0.53125 
Q 36.96875 -1.421875 32.421875 -1.421875 
Q 20.0625 -1.421875 12.78125 6.34375 
Q 5.515625 14.109375 5.515625 27.296875 
Q 5.515625 40.671875 12.859375 48.328125 
Q 20.21875 56 33.015625 56 
Q 37.15625 56 41.109375 55.140625 
Q 45.0625 54.296875 48.78125 52.59375 
z
" id="DejaVuSans-99"/>
      <path d="M 18.3125 70.21875 
L 18.3125 54.6875 
L 36.8125 54.6875 
L 36.8125 47.703125 
L 18.3125 47.703125 
L 18.3125 18.015625 
Q 18.3125 11.328125 20.140625 9.421875 
Q 21.96875 7.515625 27.59375 7.515625 
L 36.8125 7.515625 
L 36.8125 0 
L 27.59375 0 
Q 17.1875 0 13.234375 3.875 
Q 9.28125 7.765625 9.28125 18.015625 
L 9.28125 47.703125 
L 2.6875 47.703125 
L 2.6875 54.6875 
L 9.28125 54.6875 
L 9.28125 70.21875 
z
" id="DejaVuSans-116"/>
     </defs>
     <g transform="translate(378.102813 72.748562)scale(0.1 -0.1)">
      <use xlink:href="#DejaVuSans-101"/>
      <use x="61.507812" xlink:href="#DejaVuSans-120"/>
      <use x="120.6875" xlink:href="#DejaVuSans-97"/>
      <use x="181.966797" xlink:href="#DejaVuSans-99"/>
      <use x="236.947266" xlink:href="#DejaVuSans-116"/>
     </g>
    </g>
   </g>
  </g>
 </g>
 <defs>
  <clipPath id="pedd085f732">
   <rect height="266.112" width="357.12" x="57.6" y="41.472"/>
  </clipPath>
 </defs>
</svg>
