<?xml version="1.0" encoding="UTF-8" standalone="no"?>
<!DOCTYPE svg PUBLIC "-//W3C//DTD SVG 1.1//EN"
 "http://www.w3.org/Graphics/SVG/1.1/DTD/svg11.dtd">
<!-- Generated by graphviz version 2.40.1 (0)
 -->
<!-- Pages: 1 -->
<svg width="334pt" height="331pt"
 viewBox="0.00 0.00 333.50 331.22" xmlns="http://www.w3.org/2000/svg" xmlns:xlink="http://www.w3.org/1999/xlink">
<g id="graph0" class="graph" transform="scale(1 1) rotate(0) translate(4 327.22)">
<polygon fill="#ffffff" stroke="transparent" points="-4,4 -4,-327.22 329.5,-327.22 329.5,4 -4,4"/>
<!-- 139917256116264 -->
<g id="node1" class="node">
<title>139917256116264</title>
<ellipse fill="#ffffff" stroke="#000000" cx="117.5" cy="-27" rx="117.5" ry="27"/>
<text text-anchor="middle" x="117.5" y="-30.8" font-family="Times,serif" font-size="14.00" fill="#000000">gather </text>
<text text-anchor="middle" x="117.5" y="-15.8" font-family="Times,serif" font-size="14.00" fill="#000000"> ([1.0, 0.0], —, —, —)</text>
</g>
<!-- 139917264591728 -->
<g id="node2" class="node">
<title>139917264591728</title>
<ellipse fill="#88ff88" stroke="#000000" cx="134.5" cy="-296.22" rx="112.5" ry="27"/>
<text text-anchor="middle" x="134.5" y="-300.02" font-family="Times,serif" font-size="14.00" fill="#000000">fine </text>
<text text-anchor="middle" x="134.5" y="-285.02" font-family="Times,serif" font-size="14.00" fill="#000000"> ([1.0, 0.0], 0.0, 5.0)</text>
</g>
<!-- 139917264591728&#45;&gt;139917256116264 -->
<g id="edge1" class="edge">
<title>139917264591728&#45;&gt;139917256116264</title>
<path fill="none" stroke="#000000" d="M115.24,-269.72C108.56,-258.98 101.9,-246.11 98.5,-233.35 83.076,-175.38 95.807,-105.38 106.56,-63.615"/>
<polygon fill="#000000" stroke="#000000" points="109.9603,-64.4476 109.16,-53.883 103.1974,-62.6408 109.9603,-64.4476"/>
</g>
<!-- 139917256487264 -->
<g id="node3" class="node">
<title>139917256487264</title>
<ellipse fill="#88ff88" stroke="#000000" cx="190.5" cy="-206.48" rx="83.5" ry="27"/>
<text text-anchor="middle" x="190.5" y="-210.28" font-family="Times,serif" font-size="14.00" fill="#000000">fine </text>
<text text-anchor="middle" x="190.5" y="-195.28" font-family="Times,serif" font-size="14.00" fill="#000000"> (—, 5.0, 10.0)</text>
</g>
<!-- 139917264591728&#45;&gt;139917256487264 -->
<g id="edge2" class="edge">
<title>139917264591728&#45;&gt;139917256487264</title>
<path fill="none" stroke="#000000" d="M151.3,-269.3C156.72,-260.61 162.81,-250.85 168.55,-241.66"/>
<polygon fill="#000000" stroke="#000000" points="171.5788,-243.4174 173.9,-233.08 165.6389,-239.7136 171.5788,-243.4174"/>
</g>
<!-- 139917256487264&#45;&gt;139917256116264 -->
<g id="edge3" class="edge">
<title>139917256487264&#45;&gt;139917256116264</title>
<path fill="none" stroke="#000000" d="M162.95,-180.96C153.1,-170.35 142.87,-157.31 136.5,-143.61 124.89,-118.66 120.23,-87.841 118.42,-64.151"/>
<polygon fill="#000000" stroke="#000000" points="121.9118,-63.9094 117.8,-54.145 114.9252,-64.3423 121.9118,-63.9094"/>
</g>
<!-- 139917256114752 -->
<g id="node4" class="node">
<title>139917256114752</title>
<ellipse fill="#88ff88" stroke="#000000" cx="235.5" cy="-116.74" rx="90" ry="27"/>
<text text-anchor="middle" x="235.5" y="-120.54" font-family="Times,serif" font-size="14.00" fill="#000000">fine </text>
<text text-anchor="middle" x="235.5" y="-105.54" font-family="Times,serif" font-size="14.00" fill="#000000"> (—, 10.0, 15.0)</text>
</g>
<!-- 139917256487264&#45;&gt;139917256114752 -->
<g id="edge4" class="edge">
<title>139917256487264&#45;&gt;139917256114752</title>
<path fill="none" stroke="#000000" d="M204,-179.56C208.27,-171.05 213.05,-161.51 217.57,-152.49"/>
<polygon fill="#000000" stroke="#000000" points="220.8045,-153.8478 222.16,-143.34 214.5476,-150.709 220.8045,-153.8478"/>
</g>
<!-- 139917256114752&#45;&gt;139917256116264 -->
<g id="edge5" class="edge">
<title>139917256114752&#45;&gt;139917256116264</title>
<path fill="none" stroke="#000000" d="M202.32,-91.504C189.1,-81.45 173.72,-69.757 159.72,-59.111"/>
<polygon fill="#000000" stroke="#000000" points="161.7388,-56.2492 151.66,-52.983 157.5022,-61.8215 161.7388,-56.2492"/>
</g>
</g>
</svg>
